<svg width="56" height="56" viewBox="0 0 56 56" fill="none" xmlns="http://www.w3.org/2000/svg">
<path d="M14.2355 13.6527C15.3968 12.2121 17.1759 11.822 18.8958 12.5794C21.865 13.887 23.7973 16.6571 23.7973 20.093C23.7973 34.8512 1.38179 23.9707 12.8693 13.0749" stroke="#111111" stroke-width="2" stroke-linecap="round" stroke-linejoin="round"/>
<path d="M23.1577 29.4036C24.7171 33.4581 26.9563 38.7151 26.3745 43.6603" stroke="#111111" stroke-width="2" stroke-linecap="round" stroke-linejoin="round"/>
<path d="M23.302 29.7155C23.4699 32.5647 23.302 41.0994 21.7542 47.8051" stroke="#111111" stroke-width="2" stroke-linecap="round" stroke-linejoin="round"/>
<path d="M30.6401 27.608C29.2497 33.3684 28.053 41.6083 26.3736 43.6603" stroke="#111111" stroke-width="2" stroke-linecap="round" stroke-linejoin="round"/>
<path d="M30.9312 26.7356C32.9594 25.1591 34.3998 26.7902 32.0946 28.4806" stroke="#111111" stroke-width="2" stroke-linecap="round" stroke-linejoin="round"/>
<path d="M32.0223 28.5532C34.2921 28.3695 33.9254 30.2644 31.8041 30.1528" stroke="#111111" stroke-width="2" stroke-linecap="round" stroke-linejoin="round"/>
<path d="M28.9674 18.665C29.6321 20.4522 30.8263 25.5125 30.8578 25.6449" stroke="#1B76FF" stroke-opacity="0.8" stroke-width="2" stroke-linecap="round" stroke-linejoin="round"/>
<path d="M29.1129 18.3743C32.8905 15.6247 36.8103 13.0197 40.6734 10.3762" stroke="#111111" stroke-width="2" stroke-linecap="round" stroke-linejoin="round"/>
<path d="M41.1102 10.5215C41.7965 14.5017 42.4367 18.7626 43.655 22.591" stroke="#111111" stroke-width="2" stroke-linecap="round" stroke-linejoin="round"/>
<path d="M29.9857 23.173C34.458 23.0796 38.952 22.5912 43.4366 22.5912" stroke="#111111" stroke-width="2" stroke-linecap="round" stroke-linejoin="round"/>
<path d="M21.2618 24.6341C21.1489 23.953 21.0093 23.088 20.9404 22.4873" stroke="#111111" stroke-width="2" stroke-linecap="round" stroke-linejoin="round"/>
<path d="M21.2265 18.5242C21.2559 18.2192 21.1447 17.7123 21.0659 17.4423" stroke="#111111" stroke-width="2" stroke-linecap="round" stroke-linejoin="round"/>
<path d="M18.5746 18.7719C18.5884 18.5243 18.5629 18.1862 18.5355 17.8203" stroke="#111111" stroke-width="2" stroke-linecap="round" stroke-linejoin="round"/>
<path d="M44.6726 10.5217C45.4639 9.74104 47.3033 8.62126 47.8717 8.19495" stroke="#1B76FF" stroke-opacity="0.8" stroke-width="2" stroke-linecap="round" stroke-linejoin="round"/>
<path d="M46.8615 14.9101C47.8531 14.5317 48.9204 14.2576 49.9152 13.965" stroke="#1B76FF" stroke-opacity="0.8" stroke-width="2" stroke-linecap="round" stroke-linejoin="round"/>
<path d="M46.999 20.1191C47.9822 20.4784 48.9517 20.4827 49.9799 20.4827" stroke="#1B76FF" stroke-opacity="0.8" stroke-width="2" stroke-linecap="round" stroke-linejoin="round"/>
<path d="M27.1499 19.8284C25.3023 22.1736 27.0637 23.2469 29.1858 22.3731" stroke="#111111" stroke-width="2" stroke-linecap="round" stroke-linejoin="round"/>
<path d="M33.2575 24.118C33.3488 24.8432 32.7843 25.5905 32.6033 26.1538" stroke="#111111" stroke-width="2" stroke-linecap="round" stroke-linejoin="round"/>
<path d="M10.9941 30.6511C12.7188 36.5566 13.6452 38.7333 13.6452 47.8051" stroke="#111111" stroke-width="2" stroke-linecap="round" stroke-linejoin="round"/>
<path d="M10.8381 30.6511C9.43644 33.7388 5.20017 45.7171 6.3577 47.4932" stroke="#111111" stroke-width="2" stroke-linecap="round" stroke-linejoin="round"/>
</svg>
