<svg width="50" height="50" viewBox="0 0 50 50" fill="none" xmlns="http://www.w3.org/2000/svg">
<path d="M12.6287 44.1593C14.5575 38.8246 18.2878 36.8838 21.0282 36.8825" stroke="#EDB902" stroke-opacity="0.8" stroke-width="2" stroke-linecap="round" stroke-linejoin="round"/>
<path d="M21.1243 32.5211C16.0877 28.0644 15.6432 23.2741 16.8975 20.406" stroke="#EDB902" stroke-opacity="0.8" stroke-width="2" stroke-linecap="round" stroke-linejoin="round"/>
<path d="M19.6716 14.1483C19.6703 13.1582 16.3628 9.80386 16.9434 9.21118C18.3804 7.74423 21.9178 11.3775 22.6476 12.123C23.1045 12.5889 23.5559 14.2069 23.8878 13.642C24.788 12.1099 19.8442 8.30393 20.6636 7.94511C22.9638 6.93894 27.2009 10.8803 28.3523 12.3759C28.3595 12.3855 29.6805 14.8542 29.7162 14.7813C30.752 12.6662 21.4881 4.73396 28.476 6.67948C34.0914 8.24275 38.3292 16.4567 35.6741 21.3353" stroke="#111111" stroke-width="2" stroke-linecap="round" stroke-linejoin="round"/>
<path d="M14.0386 19.1927C10.6736 20.8649 14.1642 21.7621 14.9976 22.3146C15.75 24.125 14.9976 33.5 25.5 33.5C34.1573 33.5 35.552 29.0348 35.552 21.8194C35.552 21.2812 36.8568 22.1334 37.1714 21.6954C37.9963 20.5479 37.2321 19.93 36.2996 19.4665" stroke="#111111" stroke-width="2" stroke-linecap="round" stroke-linejoin="round"/>
<path d="M28.25 29C26.3336 30.1106 24.5036 30.2214 22.75 29" stroke="#111111" stroke-width="2" stroke-linecap="round" stroke-linejoin="round"/>
<path d="M23.2196 23.625C23.3366 22.8568 23.0937 22.1234 22.875 21.375" stroke="#111111" stroke-width="2" stroke-linecap="round" stroke-linejoin="round"/>
<path d="M27.3797 23.625C27.3503 22.945 27.462 22.2874 27.625 21.625" stroke="#111111" stroke-width="2" stroke-linecap="round" stroke-linejoin="round"/>
<path d="M21.0161 22.7127C21.8215 22.4623 22.2693 22.0088 22.8006 21.375" stroke="#111111" stroke-width="2" stroke-linecap="round" stroke-linejoin="round"/>
<path d="M27.8198 21.375C28.7389 21.918 29.5891 22.501 30.3851 23.1586" stroke="#111111" stroke-width="2" stroke-linecap="round" stroke-linejoin="round"/>
<path d="M10.8115 43.2064C11.483 41.8966 16.0621 35.6393 20.8731 35.6393C21.8389 35.6393 21.362 39.2609 25.6786 39.2609C28.2574 39.2609 29.4508 35.3154 30.4977 35.3154C33.6368 35.3154 37.8724 39.2609 39.8133 43.2064" stroke="#111111" stroke-width="2" stroke-linecap="round" stroke-linejoin="round"/>
</svg>
