<svg width="16" height="16" viewBox="0 0 16 16" fill="none" xmlns="http://www.w3.org/2000/svg">
<g clip-path="url(#clip0_1065_7559)">
<rect x="1.3335" y="4" width="13.3333" height="10.6667" rx="4" stroke="#1B76FF" stroke-width="1.5"/>
<path d="M5.3335 3.99992V3.99992C5.3335 2.52716 6.5274 1.33325 8.00016 1.33325V1.33325C9.47292 1.33325 10.6668 2.52716 10.6668 3.99992V3.99992" stroke="#1B76FF" stroke-width="1.5" stroke-linecap="round"/>
<path d="M1.3335 7.33325C1.3335 7.33325 5.39667 9.99992 8.00016 9.99992C10.6037 9.99992 14.6668 7.33325 14.6668 7.33325" stroke="#1B76FF" stroke-width="1.5" stroke-linecap="round"/>
<path d="M9.33317 10.0001C9.33317 10.7365 8.73622 11.3334 7.99984 11.3334C7.26346 11.3334 6.6665 10.7365 6.6665 10.0001C6.6665 9.2637 7.26346 8.66675 7.99984 8.66675C8.73622 8.66675 9.33317 9.2637 9.33317 10.0001Z" fill="#1B76FF"/>
</g>
<defs>
<clipPath id="clip0_1065_7559">
<rect width="16" height="16" fill="white"/>
</clipPath>
</defs>
</svg>
