<svg width="50" height="50" viewBox="0 0 50 50" fill="none" xmlns="http://www.w3.org/2000/svg">
<path d="M14.926 11.1055C11.5228 17.308 10.1314 26.683 22.3843 33.179" stroke="#EDB902" stroke-opacity="0.8" stroke-width="2" stroke-linecap="round" stroke-linejoin="round"/>
<path d="M21.375 38.3751C17.5552 35.4154 14.625 40.5001 11.0333 44.6404" stroke="#EDB902" stroke-opacity="0.8" stroke-width="2" stroke-linecap="round" stroke-linejoin="round"/>
<path opacity="0.503384" d="M25.7948 8.1949C24.8682 13.0448 21.2674 18.0661 17.152 20.8022C16.3119 21.361 13.5231 23.6922 12.4061 23.6922C11.3898 23.6922 11.5335 18.1844 11.6069 17.5634C12.3174 11.5389 16.451 6.41833 23.4968 6.50099C27.8185 6.55168 31.2153 6.55179 35.3306 9.20815C40.4944 12.5408 41.1604 17.2176 38.3843 21.7489C38.2837 21.9132 37.7186 23.5651 37.6347 23.5927C34.0075 24.7988 24.9596 15.0236 26.0444 7.44765" stroke="#111111" stroke-width="2" stroke-linecap="round" stroke-linejoin="round"/>
<path d="M39.875 43.375C37.9848 40.5794 34.988 37.1389 29.75 36.255C28.6674 36.0724 28.1399 43.492 25 43.375C21.8601 43.258 21 36.255 21 36.255C21 36.255 14.5 37.75 10.125 43.375" stroke="#111111" stroke-width="2" stroke-linecap="round" stroke-linejoin="round"/>
<path d="M12.6651 23.6943C12.6848 25.1649 12.6651 26.375 13.9103 28.3639C15.1554 30.3529 17.0131 31.5596 18.625 32.125C20.2369 32.6904 23.625 34.125 26.9375 33.0625" stroke="#111111" stroke-width="2" stroke-linecap="round" stroke-linejoin="round"/>
<path d="M36.2536 23.9717C34.7233 27.1564 32.4107 29.8603 29.3158 32.0835" stroke="#111111" stroke-width="2" stroke-linecap="round" stroke-linejoin="round"/>
<path d="M20.7872 25.5373C20.7129 34.3419 28.7956 26.5228 27.3355 25.0272C26.7833 24.4622 21.7649 25.1555 20.7129 25.0783" stroke="#111111" stroke-width="2" stroke-linecap="round" stroke-linejoin="round"/>
<path d="M20.1579 17.9128C23.1677 18.0372 26.3126 17.912 29.3158 18.244" stroke="#111111" stroke-width="2" stroke-linecap="round" stroke-linejoin="round"/>
<path d="M17.6603 20.5827C19.5996 24.8523 23.6081 22.5159 23.9043 18.5637" stroke="#111111" stroke-width="2" stroke-linecap="round" stroke-linejoin="round"/>
<path d="M25.1531 18.425C25.5404 22.1225 28.9451 24.0244 31.2584 20.8054" stroke="#111111" stroke-width="2" stroke-linecap="round" stroke-linejoin="round"/>
<path opacity="0.503384" d="M13.2338 27.8542C13.6321 32.1431 13.5778 36.4807 13.0813 40.75" stroke="#111111" stroke-width="2" stroke-linecap="round" stroke-linejoin="round"/>
<path opacity="0.503384" d="M37.1721 23.9717C36.2125 29.2768 36.2291 36.0863 37.9187 40.6114" stroke="#111111" stroke-width="2" stroke-linecap="round" stroke-linejoin="round"/>
<path d="M11.3122 24.1104C10.4257 25.4459 11.6321 25.387 12.3876 24.9112" stroke="#111111" stroke-width="2" stroke-linecap="round" stroke-linejoin="round"/>
<path d="M11.3469 27.0238C11.3469 26.9764 11.3469 26.929 11.3469 26.882" stroke="#EDB902" stroke-opacity="0.8" stroke-width="2" stroke-linecap="round" stroke-linejoin="round"/>
<path d="M11.3246 29.0126C11.3113 28.9331 11.3558 28.8549 11.3716 28.7759" stroke="#EDB902" stroke-opacity="0.8" stroke-width="2" stroke-linecap="round" stroke-linejoin="round"/>
<path d="M11.3217 31.5981C11.4087 31.4653 11.3529 31.3211 11.3688 31.1821" stroke="#EDB902" stroke-opacity="0.8" stroke-width="2" stroke-linecap="round" stroke-linejoin="round"/>
<path d="M37.3636 23.8191C39.173 23.3882 38.4088 24.2217 37.6044 24.0976" stroke="#111111" stroke-width="2" stroke-linecap="round" stroke-linejoin="round"/>
<path d="M38.5387 25.9129C38.5181 25.7601 38.5491 25.6388 38.5544 25.4969" stroke="#EDB902" stroke-opacity="0.8" stroke-width="2" stroke-linecap="round" stroke-linejoin="round"/>
<path d="M38.4033 28.5476C38.4079 28.4093 38.4033 28.2703 38.4033 28.1316" stroke="#EDB902" stroke-opacity="0.8" stroke-width="2" stroke-linecap="round" stroke-linejoin="round"/>
<path d="M38.3806 30.6526C38.3964 30.5898 38.4122 30.5266 38.428 30.4637" stroke="#EDB902" stroke-opacity="0.8" stroke-width="2" stroke-linecap="round" stroke-linejoin="round"/>
<path opacity="0.503384" d="M25.4306 7.74792C20.198 12.6363 15.7177 15.3045 13.9139 23.001" stroke="#111111" stroke-width="2" stroke-linecap="round" stroke-linejoin="round"/>
<path opacity="0.503384" d="M26.4019 7.8866C29.9505 12.9507 39.2652 15.9806 36.8216 23.833" stroke="#111111" stroke-width="2" stroke-linecap="round" stroke-linejoin="round"/>
<path opacity="0.503384" d="M17.2082 31.5981C17.321 34.4185 17.1433 37.2706 16.8294 40.0566" stroke="#111111" stroke-width="2" stroke-linecap="round" stroke-linejoin="round"/>
<path opacity="0.503384" d="M32.6459 28.825C32.7509 31.8498 32.3969 38.3296 33.201 40.1954" stroke="#111111" stroke-width="2" stroke-linecap="round" stroke-linejoin="round"/>
</svg>
