<svg width="12" height="14" viewBox="0 0 12 14" fill="none" xmlns="http://www.w3.org/2000/svg">
<path d="M6.37319 12.88C6.26423 12.9578 6.13371 12.9996 5.99985 12.9996C5.86599 12.9996 5.73548 12.9578 5.62652 12.88C2.40719 10.5853 -1.00948 5.86534 2.44452 2.45467C3.39243 1.52141 4.66963 0.998843 5.99985 1C7.33319 1 8.61252 1.52334 9.55519 2.454C13.0092 5.86467 9.59252 10.584 6.37319 12.88Z" stroke="#1B76FF" stroke-width="1.5" stroke-linecap="round" stroke-linejoin="round"/>
<path d="M5.99984 6.99992C6.35346 6.99992 6.6926 6.85944 6.94265 6.60939C7.19269 6.35935 7.33317 6.02021 7.33317 5.66659C7.33317 5.31296 7.19269 4.97383 6.94265 4.72378C6.6926 4.47373 6.35346 4.33325 5.99984 4.33325C5.64622 4.33325 5.30708 4.47373 5.05703 4.72378C4.80698 4.97383 4.6665 5.31296 4.6665 5.66659C4.6665 6.02021 4.80698 6.35935 5.05703 6.60939C5.30708 6.85944 5.64622 6.99992 5.99984 6.99992Z" stroke="#1B76FF" stroke-width="1.5" stroke-linecap="round" stroke-linejoin="round"/>
</svg>
