<svg width="20" height="20" viewBox="0 0 20 20" fill="none" xmlns="http://www.w3.org/2000/svg">
<path d="M2.75017 18.9583C2.45017 18.9583 2.1585 18.8833 1.9085 18.7333C1.35016 18.4083 1.03351 17.7583 1.03351 16.9499V7.48328C1.03351 5.70828 2.47516 4.2666 4.25016 4.2666H10.7335C12.5085 4.2666 13.9502 5.70828 13.9502 7.48328V16.9499C13.9502 17.7583 13.6335 18.3999 13.0752 18.7333C12.5169 19.0583 11.8002 19.0249 11.0918 18.6333L7.81685 16.8083C7.65852 16.7166 7.32516 16.7166 7.16683 16.8083L3.89184 18.6333C3.5085 18.8499 3.11684 18.9583 2.75017 18.9583ZM4.2585 5.52494C3.17517 5.52494 2.29185 6.40826 2.29185 7.4916V16.9583C2.29185 17.2999 2.39185 17.5666 2.55018 17.6583C2.70851 17.7499 2.99186 17.7083 3.29186 17.5416L6.56685 15.7166C7.10019 15.4249 7.90018 15.4249 8.43351 15.7166L11.7085 17.5416C12.0085 17.7083 12.2835 17.7499 12.4502 17.6583C12.6085 17.5666 12.7085 17.2999 12.7085 16.9583V7.4916C12.7085 6.40826 11.8252 5.52494 10.7419 5.52494H4.2585Z" fill="white"/>
<path d="M12.2417 18.9583C11.875 18.9583 11.4917 18.85 11.1 18.6416L7.82503 16.8166C7.6667 16.7333 7.325 16.7333 7.16667 16.8166L3.90001 18.6416C3.19168 19.0333 2.46668 19.0666 1.91668 18.7416C1.35834 18.4166 1.04169 17.7666 1.04169 16.9666V7.49998C1.04169 5.72498 2.48334 4.28333 4.25834 4.28333H10.7417C12.5167 4.28333 13.9584 5.72498 13.9584 7.49998V16.9666C13.9584 17.7666 13.6417 18.4166 13.0834 18.7416C12.8334 18.8833 12.55 18.9583 12.2417 18.9583ZM7.50002 15.5C7.83335 15.5 8.15835 15.575 8.43335 15.725L11.7083 17.55C12.0083 17.7166 12.2917 17.7583 12.45 17.6583C12.6084 17.5666 12.7084 17.3 12.7084 16.9583V7.49164C12.7084 6.4083 11.825 5.52498 10.7417 5.52498H4.25834C3.17501 5.52498 2.29169 6.4083 2.29169 7.49164V16.9583C2.29169 17.3 2.39168 17.5666 2.55002 17.6583C2.70835 17.75 2.9917 17.7083 3.2917 17.5416L6.56669 15.7166C6.83336 15.575 7.16669 15.5 7.50002 15.5Z" fill="white"/>
<path d="M17.2417 15.725C16.875 15.725 16.4917 15.6167 16.1 15.4084L13.025 13.6917C12.825 13.5834 12.7083 13.375 12.7083 13.15V7.50004C12.7083 6.41671 11.825 5.53339 10.7417 5.53339H6.66666C6.32499 5.53339 6.04166 5.25005 6.04166 4.90839V4.2667C6.04166 2.4917 7.48331 1.05005 9.25831 1.05005H15.7417C17.5167 1.05005 18.9583 2.4917 18.9583 4.2667V13.7334C18.9583 14.5334 18.6417 15.1834 18.0833 15.5084C17.8333 15.65 17.55 15.725 17.2417 15.725ZM13.9583 12.775L16.7083 14.3167C17.0083 14.4834 17.2833 14.525 17.45 14.425C17.6167 14.325 17.7083 14.0667 17.7083 13.725V4.25836C17.7083 3.17503 16.825 2.29171 15.7417 2.29171H9.25831C8.17498 2.29171 7.29166 3.17503 7.29166 4.25836V4.27504H10.7417C12.5167 4.27504 13.9583 5.7167 13.9583 7.4917V12.775Z" fill="white"/>
</svg>
