<svg width="57" height="56" viewBox="0 0 57 56" fill="none" xmlns="http://www.w3.org/2000/svg">
<path d="M35.01 18.48C34.774 18.8629 32.56 23.17 29.2 23.17" stroke="#FFBB02" stroke-width="2" stroke-linecap="round" stroke-linejoin="round"/>
<path d="M32.42 31.5C32.3119 32.7687 31.2983 47.04 29.76 47.04" stroke="#EDB902" stroke-opacity="0.8" stroke-width="2" stroke-linecap="round" stroke-linejoin="round"/>
<path d="M23.3399 12.5938C25.2053 10.1826 27.579 8.40775 30.8327 9.11813C40.0017 11.1197 38.238 25.2481 29.1678 25.8844C21.8235 26.4 19.0758 13.9323 25.0048 12.1849" stroke="#111111" stroke-width="2" stroke-linecap="round" stroke-linejoin="round"/>
<path d="M21.5 29.4C21.9157 33.1812 22.3131 36.4377 22.6921 39.1694C23.0711 41.9011 23.3738 44.8513 23.6 48.02" stroke="#111111" stroke-width="2" stroke-linecap="round" stroke-linejoin="round"/>
<path d="M35.2529 30.3551C34.9136 32.272 34.0395 36.3832 33.3818 40.1725C32.6545 44.3631 32.1564 48.16 32.1564 48.16" stroke="#111111" stroke-width="2" stroke-linecap="round" stroke-linejoin="round"/>
<path d="M21.4762 29.2343C20.3974 29.3096 10.8835 31.5396 10.4868 31.5161C10.393 31.51 10.301 31.5044 10.2076 31.4968C10.0249 31.482 9.72011 31.4733 9.57835 31.4199C9.27977 31.3044 9.01094 31.2143 8.77571 30.9837C8.67775 30.8883 9.0303 28.3185 10.0444 24.1507C10.9816 20.2987 12.407 16.9288 12.6946 16.6873C12.9785 16.4506 14.9362 14.8726 15.0579 14.8726C15.2653 14.8726 15.4712 14.9161 15.6805 14.9472C15.9926 14.9945 16.7954 15.6335 16.9329 15.8039C17.2195 16.1617 17.0179 16.6319 16.5053 17.3863C15.9926 18.1408 14.8399 18.1408 14.4282 18.4808" stroke="#111111" stroke-width="2" stroke-linecap="round" stroke-linejoin="round"/>
<path d="M35.5329 29.5706C37.6367 29.5706 47.6543 33.5814 47.8441 33.8638C48.043 34.1608 48.24 34.4284 48.24 34.77C48.24 35.372 47.7994 35.9237 47.277 36.3694C46.5485 36.9903 45.7216 37.5443 44.9336 38.124C44.4688 38.4653 44.0025 38.8079 43.5376 39.1492C42.8053 39.6871 36.7335 44.0786 35.9342 44.5549C35.3732 44.8896 34.7984 45.2182 34.2831 45.59C34.2727 45.6667 34.2522 45.7438 34.2227 45.8199C34.1556 45.9884 33.3386 47.8699 33.2106 48.02" stroke="#111111" stroke-width="2" stroke-linecap="round" stroke-linejoin="round"/>
</svg>
