<svg width="21" height="21" viewBox="0 0 21 21" fill="none" xmlns="http://www.w3.org/2000/svg">
<path d="M2.99999 14.6667C2.77898 14.6667 2.56701 14.5789 2.41073 14.4226C2.25445 14.2664 2.16666 14.0544 2.16666 13.8334C2.16666 13.6124 2.25445 13.4004 2.41073 13.2441C2.56701 13.0878 2.77898 13 2.99999 13H11.75C12.5833 13 13.4167 14.6667 13 14.6667H2.99999ZM14.6667 14.6667C14.4456 14.6667 14.2337 14.5789 14.0774 14.4226C13.9211 14.2664 13.8333 14.0544 13.8333 13.8334C13.8333 13.6124 13.9211 13.4004 14.0774 13.2441C14.2337 13.0878 14.4456 13 14.6667 13H18C18.221 13 18.433 13.0878 18.5892 13.2441C18.7455 13.4004 18.8333 13.6124 18.8333 13.8334C18.8333 14.0544 18.7455 14.2664 18.5892 14.4226C18.433 14.5789 18.221 14.6667 18 14.6667H14.6667ZM11.0275 3.41755C11.1378 3.22593 11.3197 3.08597 11.5331 3.02846C11.7466 2.97094 11.9742 3.00059 12.1658 3.11088C12.3574 3.22116 12.4974 3.40305 12.5549 3.61653C12.6124 3.83001 12.5828 4.05759 12.4725 4.24921L6.71666 14.2459C6.6621 14.3408 6.5894 14.424 6.50269 14.4907C6.41598 14.5575 6.31696 14.6066 6.2113 14.6351C6.10563 14.6636 5.99538 14.671 5.88685 14.6569C5.77832 14.6428 5.67362 14.6075 5.57874 14.553C5.48386 14.4984 5.40065 14.4257 5.33387 14.339C5.26709 14.2523 5.21804 14.1533 5.18953 14.0476C5.16101 13.9419 5.15359 13.8317 5.16768 13.7232C5.18177 13.6146 5.2171 13.5099 5.27166 13.415L11.0275 3.41755ZM3.83332 15.9167C4.24999 15.0834 6.74999 14.25 5.91666 15.6834C5.46451 16.4565 5.01089 17.2287 4.55582 18C4.44554 18.1917 4.26365 18.3316 4.05017 18.3891C3.83669 18.4466 3.60911 18.417 3.41749 18.3067C3.22587 18.1964 3.08591 18.0145 3.0284 17.8011C2.97089 17.5876 3.00054 17.36 3.11082 17.1684L3.83332 15.9167ZM8.11082 4.24921C8.00054 4.05759 7.97089 3.83001 8.0284 3.61653C8.08591 3.40305 8.22587 3.22116 8.41749 3.11088C8.60911 3.00059 8.83669 2.97094 9.05017 3.02846C9.26365 3.08597 9.44554 3.22593 9.55582 3.41755L11.0083 5.94171C11.0647 6.03661 11.1016 6.14176 11.117 6.25105C11.1324 6.36034 11.1259 6.4716 11.0979 6.57836C11.0699 6.68513 11.021 6.78527 10.954 6.87298C10.887 6.96069 10.8033 7.03422 10.7076 7.08929C10.612 7.14437 10.5064 7.1799 10.3969 7.19382C10.2874 7.20775 10.1762 7.19978 10.0699 7.17039C9.96347 7.141 9.86399 7.09077 9.77718 7.02262C9.69037 6.95446 9.61796 6.86974 9.56416 6.77338L8.11082 4.24921ZM11.3333 10.0834C10.585 8.83338 11.3333 6.33338 11.93 7.58005L17.4717 17.1667C17.5785 17.358 17.6056 17.5837 17.5473 17.7949C17.4889 18.006 17.3498 18.1858 17.1599 18.2951C16.9701 18.4044 16.7448 18.4346 16.5328 18.3791C16.3209 18.3235 16.1393 18.1868 16.0275 17.9984L11.3333 10.0834Z" fill="white"/>
</svg>
