<svg width="20" height="21" viewBox="0 0 20 21" fill="none" xmlns="http://www.w3.org/2000/svg">
<g clip-path="url(#clip0_1036_5001)">
<path d="M18.3483 11.5816L15.0825 13.4299L12.1533 10.5191L15.1058 7.58495L18.3483 9.41995C18.5397 9.52816 18.6989 9.68524 18.8097 9.87514C18.9205 10.065 18.9788 10.2809 18.9788 10.5008C18.9788 10.7206 18.9205 10.9365 18.8097 11.1264C18.6989 11.3163 18.5397 11.4734 18.3483 11.5816ZM1.11416 1.26995C1.05232 1.42008 1.02061 1.58091 1.02083 1.74328V19.2574C1.02083 19.4383 1.05833 19.6066 1.12416 19.7574L10.42 10.5183L1.11416 1.26995ZM11.2867 9.65745L14.0017 6.95911L2.875 0.662447C2.6365 0.525393 2.35874 0.472835 2.08666 0.51328L11.2867 9.65745ZM11.2867 11.3799L2.12 20.4908C2.36833 20.5208 2.63 20.4774 2.875 20.3383L13.9783 14.0549L11.2867 11.3799Z" fill="white"/>
</g>
<defs>
<clipPath id="clip0_1036_5001">
<rect width="20" height="20" fill="white" transform="translate(0 0.5)"/>
</clipPath>
</defs>
</svg>
