<svg width="49" height="48" viewBox="0 0 49 48" fill="none" xmlns="http://www.w3.org/2000/svg">
<path d="M15.74 24C14.5401 32.52 15.6819 35.5188 16.5799 43.08" stroke="#FFBB02" stroke-width="2" stroke-linecap="round" stroke-linejoin="round"/>
<path d="M17.5745 6.1827C18.8726 4.57253 20.8611 4.13648 22.7834 4.98306C26.1021 6.44451 28.2619 9.54073 28.2619 13.381C27.3761 28.4393 3.84547 19.5499 16.0476 5.53679" stroke="#111111" stroke-width="2" stroke-linecap="round" stroke-linejoin="round"/>
<path d="M27.5505 24.0817C29.4808 28.9806 30.7758 33.9912 31.2108 39.0716" stroke="#111111" stroke-width="2" stroke-linecap="round" stroke-linejoin="round"/>
<path d="M31.2106 38.8974C33.4016 36.4668 35.3772 31.7369 37.4855 28.4393" stroke="#111111" stroke-width="2" stroke-linecap="round" stroke-linejoin="round"/>
<path d="M37.9642 22.6874C38.116 24.7912 37.8427 26.8051 37.6598 28.6136" stroke="#111111" stroke-width="2" stroke-linecap="round" stroke-linejoin="round"/>
<path d="M38.3569 26.0292C40.8355 24.0928 38.7685 27.8594 38.7813 27.9164" stroke="#111111" stroke-width="2" stroke-linecap="round" stroke-linejoin="round"/>
<path d="M38.764 27.2067C41.534 26.4277 39.3479 28.6713 38.0083 29.4851" stroke="#111111" stroke-width="2" stroke-linecap="round" stroke-linejoin="round"/>
<path d="M13.2575 24.0817C14.7316 30.6823 15.5234 33.1152 15.5234 43.2549" stroke="#111111" stroke-width="2" stroke-linecap="round" stroke-linejoin="round"/>
<path d="M27.5376 24.0817C27.7252 27.129 25.8076 34.1992 25.8075 43.4292" stroke="#111111" stroke-width="2" stroke-linecap="round" stroke-linejoin="round"/>
<path d="M13.0832 24.0817C10.609 26.1733 8.11404 40.9211 9.13427 42.9063" stroke="#111111" stroke-width="2" stroke-linecap="round" stroke-linejoin="round"/>
<path d="M19.1838 13.4494C19.1838 13.0427 19.1838 12.88 19.1838 12.2293" stroke="#FFBB02" stroke-width="2" stroke-linecap="round" stroke-linejoin="round"/>
<path d="M22.8441 13.4494C22.8441 13.0428 22.8441 12.6359 22.8441 12.2293" stroke="#FFBB02" stroke-width="2" stroke-linecap="round" stroke-linejoin="round"/>
<path d="M21.9726 17.344C20.9729 17.6355 19.8963 17.344 19.358 16.7611" stroke="#111111" stroke-width="2" stroke-linecap="round" stroke-linejoin="round"/>
</svg>
