<svg width="49" height="48" viewBox="0 0 49 48" fill="none" xmlns="http://www.w3.org/2000/svg">
<path d="M15.74 40.68C13.4252 34.6529 14.18 30.84 15.0209 28.8" stroke="#FFBB02" stroke-width="3" stroke-linecap="round" stroke-linejoin="round"/>
<path d="M15.74 22.2C11.793 17.6358 13.2921 14.8537 14.8097 13.2693" stroke="#FFBB02" stroke-width="3" stroke-linecap="round" stroke-linejoin="round"/>
<path d="M29.1709 22.2257C26.2743 16.9322 28.326 14.5285 30.1433 13.2995" stroke="#FFBB02" stroke-width="3" stroke-linecap="round" stroke-linejoin="round"/>
<path d="M13.4551 14.2448C14.0009 13.1085 14.8967 12.3547 16.1471 12.1494C22.0275 11.184 26.2045 18.6561 21.3143 22.6699C16.8994 26.2934 11.1217 21.9054 12.6735 16.8109" stroke="#111111" stroke-width="3" stroke-linecap="round" stroke-linejoin="round"/>
<path d="M27.2766 15.1292C31.3371 7.91447 42.169 14.8398 36.9638 21.4774C33.4586 25.9475 25.4381 24.2936 26.5129 17.9681" stroke="#111111" stroke-width="3" stroke-linecap="round" stroke-linejoin="round"/>
<path d="M11.2811 18.4917C10.0999 20.425 5.01641 23.6694 3.9234 26.2199C3.10908 28.1199 11.6509 26.4267 12.7879 26.2199" stroke="#111111" stroke-width="3" stroke-linecap="round" stroke-linejoin="round"/>
<path d="M39.4516 19.115C47.9674 26.2199 47.1586 27.6616 35.4186 27.6616" stroke="#111111" stroke-width="3" stroke-linecap="round" stroke-linejoin="round"/>
<path d="M35.4186 27.6616C35.4623 30.823 36.4181 38.4061 35.8269 41.5338" stroke="#111111" stroke-width="3" stroke-linecap="round" stroke-linejoin="round"/>
<path d="M12.7883 26.2199C13.5487 29.7792 13.7963 37.915 13.7963 41.5338" stroke="#111111" stroke-width="3" stroke-linecap="round" stroke-linejoin="round"/>
<path d="M16.9837 11.0327C21.2026 4.97517 29.4247 5.1242 32.4564 10.401" stroke="#111111" stroke-width="3" stroke-linecap="round" stroke-linejoin="round"/>
<path d="M23.9096 17.8111C24.4904 17.6098 25.8273 17.6556 26.4147 17.7116" stroke="#111111" stroke-width="3" stroke-linecap="round" stroke-linejoin="round"/>
<path d="M16.4236 24.6818C19.3441 30.9143 29.2517 30.7798 31.724 25.3951" stroke="#111111" stroke-width="3" stroke-linecap="round" stroke-linejoin="round"/>
<path d="M17.5927 18.6085C17.6439 18.1681 17.6344 17.7223 17.6344 17.2789" stroke="#FFBB02" stroke-width="3" stroke-linecap="round" stroke-linejoin="round"/>
<path d="M32.3828 19.2111C32.3828 18.6216 32.3974 18.2031 32.4564 17.6638" stroke="#FFBB02" stroke-width="3" stroke-linecap="round" stroke-linejoin="round"/>
<path d="M11.4894 20.0853C10.8641 18.4372 11.2502 17.4248 11.5064 16.2287" stroke="#111111" stroke-width="3" stroke-linecap="round" stroke-linejoin="round"/>
<path d="M39.8107 19.1161C40.4066 18.094 40.0696 17.2728 39.4747 16.3802" stroke="#111111" stroke-width="3" stroke-linecap="round" stroke-linejoin="round"/>
<path d="M39.4271 20.2681C39.5992 20.1813 39.6831 19.9801 39.8112 19.8361" stroke="#111111" stroke-width="3" stroke-linecap="round" stroke-linejoin="round"/>
<path d="M11.7805 19.2601C11.9481 19.1502 12.1326 19.1642 12.3084 19.1161" stroke="#111111" stroke-width="3" stroke-linecap="round" stroke-linejoin="round"/>
</svg>
