<svg width="49" height="48" viewBox="0 0 49 48" fill="none" xmlns="http://www.w3.org/2000/svg">
<path d="M18.3382 23.1798C16.261 22.5491 12.48 20.3698 12.5904 17.6067" stroke="#1B76FF" stroke-opacity="0.8" stroke-width="2" stroke-linecap="round" stroke-linejoin="round"/>
<path d="M26.4002 28.3828C28.1738 27.8299 39.4831 26.3141 40.0698 27.1941C40.6965 28.1341 39.0218 30.7428 38.617 31.5526" stroke="#111111" stroke-width="2" stroke-linecap="round" stroke-linejoin="round"/>
<path d="M24.5516 30.628C23.6663 32.4167 17.1083 44.3355 17.4196 44.958C22.6551 44.3613 32.6394 44.7285 33.7967 43.5712C34.4845 42.8834 34.6306 41.4289 35.1835 40.5996" stroke="#111111" stroke-width="2" stroke-linecap="round" stroke-linejoin="round"/>
<path d="M32.2113 30.3639C32.1588 30.17 32.3473 30.0465 32.4094 29.9016" stroke="#111111" stroke-width="2" stroke-linecap="round" stroke-linejoin="round"/>
<path d="M10.5485 11.5312C14.6969 -0.705055 32.7355 4.98128 29.1608 17.6824C27.2228 24.5677 14.0433 27.8086 11.1796 16.8608" stroke="#111111" stroke-width="2" stroke-linecap="round" stroke-linejoin="round"/>
<path d="M24.8563 15.6135C24.772 14.9612 24.7405 14.5639 24.6001 13.979" stroke="#1B76FF" stroke-opacity="0.8" stroke-width="2" stroke-linecap="round" stroke-linejoin="round"/>
<path d="M21.09 15.7363C21.0586 15.187 20.9211 14.7837 20.7751 14.2531" stroke="#1B76FF" stroke-opacity="0.8" stroke-width="2" stroke-linecap="round" stroke-linejoin="round"/>
<path d="M37.1642 33.5337C36.4139 33.6922 35.7177 33.9777 35.117 34.4582C29.722 38.7742 37.8887 40.2731 40.4 35.2506C40.8904 34.2697 40.7642 33.1965 40.1358 32.411" stroke="#111111" stroke-width="2" stroke-linecap="round" stroke-linejoin="round"/>
<path d="M11.1716 29.7993C12.6298 23.6263 21.7394 28.1402 20.5488 32.903C19.8417 35.7312 17.2911 32.3091 16.9168 31.1861" stroke="#111111" stroke-width="2" stroke-linecap="round" stroke-linejoin="round"/>
<path d="M16.9827 32.2702C16.7727 35.1604 13.6617 33.8811 12.5582 32.3363" stroke="#111111" stroke-width="2" stroke-linecap="round" stroke-linejoin="round"/>
</svg>
